<svg width="294" height="294" viewBox="0 0 294 294" fill="none" xmlns="http://www.w3.org/2000/svg">
<path d="M45.7337 32.6667C42.2682 32.6667 38.9446 34.0434 36.4941 36.4939C34.0437 38.9444 32.667 42.2679 32.667 45.7334V98.0001H98.0003V32.6667H45.7337ZM81.667 81.6667H49.0003V49.0001H81.667V81.6667Z" fill="black"/>
<path d="M32.667 248.267C32.667 251.732 34.0437 255.056 36.4941 257.506C38.9446 259.957 42.2682 261.333 45.7337 261.333H98.0003V196H32.667V248.267ZM49.0003 212.333H81.667V245H49.0003V212.333Z" fill="black"/>
<path d="M196 261.333H248.267C251.732 261.333 255.056 259.957 257.506 257.506C259.957 255.056 261.333 251.732 261.333 248.267V196H196V261.333ZM212.333 212.333H245V245H212.333V212.333Z" fill="black"/>
<path d="M248.267 32.6667H196V98.0001H261.333V45.7334C261.333 42.2679 259.957 38.9444 257.506 36.4939C255.056 34.0434 251.732 32.6667 248.267 32.6667ZM245 81.6667H212.333V49.0001H245V81.6667Z" fill="black"/>
<path d="M163.334 81.6666V65.3333H130.667V97.9999H147V81.6666H163.334Z" fill="black"/>
<path d="M98 98H114.333V114.333H98V98Z" fill="#009EE2"/>
<path d="M114.333 114.333H147V130.667H114.333V114.333Z" fill="black"/>
<path d="M163.333 49.0001V65.3334H179.666V32.6667H114.333V65.3334H130.666V49.0001H163.333Z" fill="black"/>
<path d="M32.667 114.333H49.0003V147H32.667V114.333Z" fill="black"/>
<path d="M98.0003 130.667V147H81.667V114.333H65.3337V147H49.0003V163.333H32.667V179.667H65.3337V163.333H81.667V179.667H98.0003V163.333H114.334V130.667H98.0003Z" fill="black"/>
<path d="M163.333 130.667H179.667V147H196V130.667H212.333V114.333H179.667V81.6667H163.333V98.0001H147V114.333H163.333V130.667Z" fill="#009EE2"/>
<path d="M147 245H114.333V261.333H179.666V245H163.333V228.667H147V245Z" fill="black"/>
<path d="M179.667 163.333V147H163.334V130.667H147V147H130.667V163.333H147V179.667H163.334V163.333H179.667Z" fill="black"/>
<path d="M245 163.333H261.333V179.667H245V163.333Z" fill="black"/>
<path d="M179.667 163.333H228.667V179.667H179.667V163.333Z" fill="black"/>
<path d="M245 114.333H228.666V130.667H212.333V147H228.666V163.333H245V147H261.333V130.667H245V114.333Z" fill="black"/>
<path d="M163.333 179.667H179.666V228.667H163.333V179.667Z" fill="black"/>
<path d="M114.333 228.667H130.666V212.333H147V196H130.666V163.333H114.333V228.667Z" fill="#009EE2"/>
</svg>
