<svg width="28" height="30" viewBox="0 0 28 30" fill="none" xmlns="http://www.w3.org/2000/svg">
<g filter="url(#filter0_d_737_1068)">
<path d="M15 15.9999H9.00001C8.73479 15.9999 8.48044 16.1053 8.2929 16.2928C8.10537 16.4804 8.00001 16.7347 8.00001 16.9999C8.00001 17.2652 8.10537 17.5195 8.2929 17.7071C8.48044 17.8946 8.73479 17.9999 9.00001 17.9999H15C15.2652 17.9999 15.5196 17.8946 15.7071 17.7071C15.8947 17.5195 16 17.2652 16 16.9999C16 16.7347 15.8947 16.4804 15.7071 16.2928C15.5196 16.1053 15.2652 15.9999 15 15.9999ZM11 9.99995H13C13.2652 9.99995 13.5196 9.89459 13.7071 9.70705C13.8947 9.51952 14 9.26516 14 8.99995C14 8.73473 13.8947 8.48038 13.7071 8.29284C13.5196 8.1053 13.2652 7.99995 13 7.99995H11C10.7348 7.99995 10.4804 8.1053 10.2929 8.29284C10.1054 8.48038 10 8.73473 10 8.99995C10 9.26516 10.1054 9.51952 10.2929 9.70705C10.4804 9.89459 10.7348 9.99995 11 9.99995ZM23 11.9999H20V2.99995C20.0007 2.82374 19.9548 2.65047 19.867 2.49769C19.7792 2.34491 19.6526 2.21805 19.5 2.12995C19.348 2.04218 19.1755 1.99597 19 1.99597C18.8245 1.99597 18.652 2.04218 18.5 2.12995L15.5 3.84995L12.5 2.12995C12.348 2.04218 12.1755 1.99597 12 1.99597C11.8245 1.99597 11.652 2.04218 11.5 2.12995L8.50001 3.84995L5.50001 2.12995C5.34799 2.04218 5.17554 1.99597 5.00001 1.99597C4.82447 1.99597 4.65203 2.04218 4.50001 2.12995C4.3474 2.21805 4.22079 2.34491 4.13299 2.49769C4.04518 2.65047 3.99931 2.82374 4.00001 2.99995V18.9999C4.00001 19.7956 4.31608 20.5587 4.87869 21.1213C5.4413 21.6839 6.20436 21.9999 7.00001 21.9999H21C21.7957 21.9999 22.5587 21.6839 23.1213 21.1213C23.6839 20.5587 24 19.7956 24 18.9999V12.9999C24 12.7347 23.8947 12.4804 23.7071 12.2928C23.5196 12.1053 23.2652 11.9999 23 11.9999ZM7.00001 19.9999C6.73479 19.9999 6.48044 19.8946 6.2929 19.7071C6.10536 19.5195 6.00001 19.2652 6.00001 18.9999V4.72995L8.00001 5.86995C8.15435 5.95056 8.32589 5.99266 8.50001 5.99266C8.67413 5.99266 8.84567 5.95056 9.00001 5.86995L12 4.14995L15 5.86995C15.1543 5.95056 15.3259 5.99266 15.5 5.99266C15.6741 5.99266 15.8457 5.95056 16 5.86995L18 4.72995V18.9999C18.0027 19.3411 18.0636 19.6793 18.18 19.9999H7.00001ZM22 18.9999C22 19.2652 21.8947 19.5195 21.7071 19.7071C21.5196 19.8946 21.2652 19.9999 21 19.9999C20.7348 19.9999 20.4804 19.8946 20.2929 19.7071C20.1054 19.5195 20 19.2652 20 18.9999V13.9999H22V18.9999ZM15 11.9999H9.00001C8.73479 11.9999 8.48044 12.1053 8.2929 12.2928C8.10537 12.4804 8.00001 12.7347 8.00001 12.9999C8.00001 13.2652 8.10537 13.5195 8.2929 13.7071C8.48044 13.8946 8.73479 13.9999 9.00001 13.9999H15C15.2652 13.9999 15.5196 13.8946 15.7071 13.7071C15.8947 13.5195 16 13.2652 16 12.9999C16 12.7347 15.8947 12.4804 15.7071 12.2928C15.5196 12.1053 15.2652 11.9999 15 11.9999Z" fill="white"/>
</g>
<defs>
<filter id="filter0_d_737_1068" x="-2" y="0" width="32" height="32" filterUnits="userSpaceOnUse" color-interpolation-filters="sRGB">
<feFlood flood-opacity="0" result="BackgroundImageFix"/>
<feColorMatrix in="SourceAlpha" type="matrix" values="0 0 0 0 0 0 0 0 0 0 0 0 0 0 0 0 0 0 127 0" result="hardAlpha"/>
<feOffset dy="4"/>
<feGaussianBlur stdDeviation="2"/>
<feComposite in2="hardAlpha" operator="out"/>
<feColorMatrix type="matrix" values="0 0 0 0 0 0 0 0 0 0 0 0 0 0 0 0 0 0 0.25 0"/>
<feBlend mode="normal" in2="BackgroundImageFix" result="effect1_dropShadow_737_1068"/>
<feBlend mode="normal" in="SourceGraphic" in2="effect1_dropShadow_737_1068" result="shape"/>
</filter>
</defs>
</svg>
