<svg width="8" height="24" viewBox="0 0 8 24" fill="none" xmlns="http://www.w3.org/2000/svg">
<path d="M7.74547 8.14955L0.446097 8.90697L0.184723 9.90983L1.6191 10.1289C2.55622 10.3136 2.7411 10.5934 2.5371 11.3666L0.184723 20.519C-0.433652 22.8863 0.51941 24 2.76022 24C4.49741 24 6.5151 23.3349 7.42991 22.4218L7.71041 21.3239C7.07291 21.7884 6.14216 21.9732 5.52378 21.9732C4.64722 21.9732 4.32847 21.4638 4.55478 20.5665L7.74547 8.14955ZM7.9686 2.6391C7.9686 3.33904 7.63277 4.0103 7.035 4.50523C6.43723 5.00016 5.62647 5.27821 4.7811 5.27821C3.93572 5.27821 3.12497 5.00016 2.5272 4.50523C1.92942 4.0103 1.5936 3.33904 1.5936 2.6391C1.5936 1.93917 1.92942 1.2679 2.5272 0.772975C3.12497 0.278047 3.93572 0 4.7811 0C5.62647 0 6.43723 0.278047 7.035 0.772975C7.63277 1.2679 7.9686 1.93917 7.9686 2.6391Z" fill="white"/>
</svg>
