<svg width="24" height="24" viewBox="0 0 24 24" fill="none" xmlns="http://www.w3.org/2000/svg">
<g clip-path="url(#clip0_737_1070)">
<path d="M15.4039 -0.000136752C15.2193 0.00724786 15.0411 0.0404786 14.8556 0.0866325L2.3073 3.14386C0.822989 3.50756 -0.105626 5.00479 0.258989 6.49002L2.01837 13.6734C2.12499 14.1013 2.33257 14.4974 2.62374 14.8286C2.91492 15.1597 3.2812 15.4163 3.69191 15.5768V13.846C3.69191 11.3011 5.76237 9.23063 8.3073 9.23063H19.9325L18.2018 2.1054C18.0487 1.48603 17.6867 0.938402 17.1769 0.554847C16.667 0.171291 16.0405 -0.0247205 15.403 -0.000136752H15.4039ZM16.5282 3.98109L17.2787 7.12509L14.1633 7.87463L13.3842 4.75925L16.5282 3.98109ZM8.3073 11.0768C6.77868 11.0768 5.53807 12.3174 5.53807 13.846V21.2306C5.53807 22.7592 6.77868 23.9999 8.3073 23.9999H21.2304C22.759 23.9999 23.9996 22.7592 23.9996 21.2306V13.846C23.9996 12.3174 22.759 11.0768 21.2304 11.0768H8.3073ZM8.3073 12.5482H21.2304C21.9421 12.5482 22.5282 13.1343 22.5282 13.846V14.7691H7.00945V13.846C7.00945 13.1343 7.5956 12.5482 8.3073 12.5482ZM7.00945 17.5383H22.5282V21.2306C22.5282 21.9423 21.9421 22.5285 21.2304 22.5285H8.3073C7.96369 22.5265 7.6347 22.3892 7.39172 22.1462C7.14875 21.9032 7.01139 21.5742 7.00945 21.2306V17.5383Z" fill="white"/>
</g>
<defs>
<clipPath id="clip0_737_1070">
<rect width="24" height="24" fill="white"/>
</clipPath>
</defs>
</svg>
